<mxfile host="app.diagrams.net" modified="2023-11-20T02:52:56.789Z" agent="Mozilla/5.0 (Windows NT 10.0; Win64; x64) AppleWebKit/537.36 (KHTML, like Gecko) Chrome/119.0.0.0 Safari/537.36" etag="_il3eej4rtdnYgiA8mMG" version="22.1.3" type="github">
  <diagram name="Page-1" id="0elA5QEPm81dH3ah32ck">
    <mxGraphModel dx="1737" dy="927" grid="1" gridSize="10" guides="1" tooltips="1" connect="1" arrows="1" fold="1" page="1" pageScale="1" pageWidth="850" pageHeight="1100" math="0" shadow="0">
      <root>
        <mxCell id="0" />
        <mxCell id="1" parent="0" />
        <mxCell id="S35jreRN5whNI-_d3iR9-1" value="&lt;br&gt;&lt;p data-pm-slice=&quot;1 1 [&amp;quot;body&amp;quot;,{},&amp;quot;ordered_list&amp;quot;,{&amp;quot;tight&amp;quot;:true,&amp;quot;order&amp;quot;:1,&amp;quot;number_style&amp;quot;:&amp;quot;Decimal&amp;quot;,&amp;quot;number_delim&amp;quot;:&amp;quot;Period&amp;quot;},&amp;quot;list_item&amp;quot;,{&amp;quot;checked&amp;quot;:null}]&quot;&gt;&lt;/p&gt;&lt;br&gt;" style="strokeWidth=2;html=1;shape=mxgraph.flowchart.database;whiteSpace=wrap;fillColor=#cce5ff;strokeColor=#36393d;" vertex="1" parent="1">
          <mxGeometry x="290" y="160" width="500" height="560" as="geometry" />
        </mxCell>
        <mxCell id="S35jreRN5whNI-_d3iR9-9" value="&lt;font style=&quot;font-size: 62px;&quot;&gt;TealData&lt;/font&gt;" style="text;strokeColor=none;align=center;fillColor=none;html=1;verticalAlign=middle;whiteSpace=wrap;rounded=0;" vertex="1" parent="1">
          <mxGeometry x="430" y="200" width="200" height="120" as="geometry" />
        </mxCell>
        <mxCell id="S35jreRN5whNI-_d3iR9-11" value="&lt;font style=&quot;font-size: 62px;&quot;&gt;...&lt;/font&gt;" style="text;strokeColor=none;align=center;fillColor=none;html=1;verticalAlign=middle;whiteSpace=wrap;rounded=0;" vertex="1" parent="1">
          <mxGeometry x="540" y="520" width="200" height="120" as="geometry" />
        </mxCell>
        <mxCell id="S35jreRN5whNI-_d3iR9-33" value="" style="group" vertex="1" connectable="0" parent="1">
          <mxGeometry x="540" y="380" width="200" height="140" as="geometry" />
        </mxCell>
        <mxCell id="S35jreRN5whNI-_d3iR9-5" value="" style="strokeWidth=2;html=1;shape=mxgraph.flowchart.database;whiteSpace=wrap;fillColor=#647687;strokeColor=#314354;fontColor=#ffffff;" vertex="1" parent="S35jreRN5whNI-_d3iR9-33">
          <mxGeometry x="30" width="140" height="120" as="geometry" />
        </mxCell>
        <mxCell id="S35jreRN5whNI-_d3iR9-12" value="&lt;font style=&quot;font-size: 21px;&quot;&gt;TealDataset&lt;/font&gt;" style="text;strokeColor=none;align=center;fillColor=none;html=1;verticalAlign=middle;whiteSpace=wrap;rounded=0;" vertex="1" parent="S35jreRN5whNI-_d3iR9-33">
          <mxGeometry y="10" width="200" height="130" as="geometry" />
        </mxCell>
        <mxCell id="S35jreRN5whNI-_d3iR9-34" value="" style="group" vertex="1" connectable="0" parent="1">
          <mxGeometry x="310" y="380" width="200" height="140" as="geometry" />
        </mxCell>
        <mxCell id="S35jreRN5whNI-_d3iR9-35" value="" style="strokeWidth=2;html=1;shape=mxgraph.flowchart.database;whiteSpace=wrap;fillColor=#647687;strokeColor=#314354;fontColor=#ffffff;" vertex="1" parent="S35jreRN5whNI-_d3iR9-34">
          <mxGeometry x="30" width="140" height="120" as="geometry" />
        </mxCell>
        <mxCell id="S35jreRN5whNI-_d3iR9-36" value="&lt;font style=&quot;font-size: 21px;&quot;&gt;TealDataset&lt;/font&gt;" style="text;strokeColor=none;align=center;fillColor=none;html=1;verticalAlign=middle;whiteSpace=wrap;rounded=0;" vertex="1" parent="S35jreRN5whNI-_d3iR9-34">
          <mxGeometry y="10" width="200" height="130" as="geometry" />
        </mxCell>
        <mxCell id="S35jreRN5whNI-_d3iR9-37" value="" style="group" vertex="1" connectable="0" parent="1">
          <mxGeometry x="310" y="530" width="200" height="140" as="geometry" />
        </mxCell>
        <mxCell id="S35jreRN5whNI-_d3iR9-38" value="" style="strokeWidth=2;html=1;shape=mxgraph.flowchart.database;whiteSpace=wrap;fillColor=#647687;strokeColor=#314354;fontColor=#ffffff;" vertex="1" parent="S35jreRN5whNI-_d3iR9-37">
          <mxGeometry x="30" width="140" height="120" as="geometry" />
        </mxCell>
        <mxCell id="S35jreRN5whNI-_d3iR9-39" value="&lt;font style=&quot;font-size: 21px;&quot;&gt;TealDataset&lt;/font&gt;" style="text;strokeColor=none;align=center;fillColor=none;html=1;verticalAlign=middle;whiteSpace=wrap;rounded=0;" vertex="1" parent="S35jreRN5whNI-_d3iR9-37">
          <mxGeometry y="10" width="200" height="130" as="geometry" />
        </mxCell>
      </root>
    </mxGraphModel>
  </diagram>
</mxfile>
